Coordinates
version=1
nRows=16
nColumns=40
inDegrees=yes

Units are S.I. units (second, meters, Newtons, ...)
Angles are in degrees.

endheader
time	pelvis_tilt	pelvis_list	pelvis_rotation	pelvis_tx	pelvis_ty	pelvis_tz	hip_flexion_r	hip_adduction_r	hip_rotation_r	knee_angle_r	knee_angle_r_beta	ankle_angle_r	subtalar_angle_r	mtp_angle_r	hip_flexion_l	hip_adduction_l	hip_rotation_l	knee_angle_l	knee_angle_l_beta	ankle_angle_l	subtalar_angle_l	mtp_angle_l	lumbar_extension	lumbar_bending	lumbar_rotation	arm_flex_r	arm_add_r	arm_rot_r	elbow_flex_r	pro_sup_r	wrist_flex_r	wrist_dev_r	arm_flex_l	arm_add_l	arm_rot_l	elbow_flex_l	pro_sup_l	wrist_flex_l	wrist_dev_l
     41.49000000	     -2.33011380	     -4.40121728	     -2.30950771	      1.05738818	      0.93789520	      0.44248047	     30.40338956	     -5.83528892	     -7.45398916	     57.72921059	     57.72921059	      5.82777110	    -11.77210866	      0.19446334	     11.60760628	     -6.11802358	    -13.23656315	     19.36080259	     19.36080259	     13.80591215	     -0.75578181	     -4.55805071	    -10.49479894	      1.25021413	     -1.20341636	     -8.05776319	    -16.06521685	    -12.22427791	     32.11126013	     45.30019654	      0.00000000	      0.00000000	     11.51893371	    -17.75862628	     -0.51041325	     37.09667457	     45.36123625	      0.00000000	      0.00000000
     41.50350000	     -2.49108706	     -4.38250496	     -2.55895530	      1.05556821	      0.93786702	      0.44243273	     30.79206609	     -5.61224007	     -7.24719471	     54.95110063	     54.95110063	      5.97026249	    -11.19345936	      0.37192591	     11.35667887	     -6.08658614	    -13.47126107	     19.16295260	     19.16295260	     13.95709963	     -0.73755010	     -4.61987580	    -10.34249948	      1.08884215	     -1.57244176	     -8.34172261	    -15.99901792	    -12.17551365	     32.02207177	     45.30269054	      0.00000000	      0.00000000	     12.15022436	    -17.83954995	     -0.53350604	     37.32008228	     45.37661969	      0.00000000	      0.00000000
     41.51700000	     -2.37989342	     -4.51251138	     -2.78317909	      1.05403920	      0.93844314	      0.44240540	     30.56320316	     -5.22848293	     -7.16487542	     51.67920003	     51.67920003	      5.95365326	    -10.55422216	      0.34469259	     10.58748017	     -6.17588812	    -13.81671644	     18.58185536	     18.58185536	     14.07056769	     -0.38919622	     -4.70718480	    -10.49598999	      1.08986216	     -1.62607196	     -8.77944763	    -16.05798796	    -12.03476077	     31.77302476	     45.31002402	      0.00000000	      0.00000000	     13.00251125	    -17.66173826	     -0.54309359	     37.49458995	     45.40005063	      0.00000000	      0.00000000
     41.53050000	     -2.46351886	     -4.53887636	     -3.00021673	      1.05236902	      0.93855549	      0.44241428	     30.48414559	     -4.91769469	     -7.00014515	     48.28307987	     48.28307987	      5.93392441	     -9.81183437	      0.42357806	     10.16401851	     -6.17640777	    -14.10209668	     18.21417028	     18.21417028	     14.15782106	     -0.17454391	     -4.82554990	    -10.45584589	      0.98881530	     -1.78761437	     -9.14632172	    -16.03765330	    -11.92283327	     31.62632004	     45.31291464	      0.00000000	      0.00000000	     13.76247937	    -17.58745272	     -0.54585137	     37.62314132	     45.41856932	      0.00000000	      0.00000000
     41.54400000	     -2.50601746	     -4.57113891	     -3.21411742	      1.05077125	      0.93869810	      0.44249958	     30.19461543	     -4.58895898	     -6.86613216	     44.62026825	     44.62026825	      5.87789450	     -8.88510412	      0.56748825	      9.68907020	     -6.18032764	    -14.39163769	     17.82810922	     17.82810922	     14.24822291	      0.02369205	     -4.95469442	    -10.46599555	      0.89664484	     -1.89123795	     -9.49390333	    -16.04258828	    -11.81103681	     31.50015230	     45.31520335	      0.00000000	      0.00000000	     14.54224305	    -17.47645434	     -0.54153977	     37.75404707	     45.43633048	      0.00000000	      0.00000000
     41.55750000	     -2.62394308	     -4.54579387	     -3.42514215	      1.04918899	      0.93863152	      0.44261759	     29.88331941	     -4.29891075	     -6.69625684	     40.79639566	     40.79639566	      5.84896000	     -7.77864452	      0.83374557	      9.34233595	     -6.12504634	    -14.65670520	     17.51643797	     17.51643797	     14.33248644	      0.13431890	     -5.07311970	    -10.37443412	      0.79066826	     -1.98281930	     -9.75920908	    -15.99811764	    -11.72055483	     31.42213355	     45.31579480	      0.00000000	      0.00000000	     15.27349775	    -17.40122707	     -0.54036158	     37.92146085	     45.45215120	      0.00000000	      0.00000000
     41.57100000	     -2.61812832	     -4.59375175	     -3.61098226	      1.04770685	      0.93875480	      0.44283683	     29.25491768	     -3.95695597	     -6.67403222	     36.70463308	     36.70463308	      5.73156750	     -6.26157521	      1.07159723	      8.81834577	     -6.13270997	    -14.86205677	     17.12521734	     17.12521734	     14.41122045	      0.26673021	     -5.22115874	    -10.45817785	      0.73246189	     -1.96577501	    -10.05823860	    -16.05960117	    -11.62339435	     31.33220453	     45.31889072	      0.00000000	      0.00000000	     16.06294500	    -17.16045230	     -0.52300313	     38.09717904	     45.46885329	      0.00000000	      0.00000000
     41.58450000	     -2.69812787	     -4.61868336	     -3.78034534	      1.04623386	      0.93861828	      0.44311783	     28.62751098	     -3.63021591	     -6.69412455	     32.50685364	     32.50685364	      5.59868023	     -4.48072708	      1.38405116	      8.43412313	     -6.11760469	    -14.98369749	     16.80250353	     16.80250353	     14.48827331	      0.28400992	     -5.37547408	    -10.46728245	      0.69983232	     -1.93587301	    -10.28526258	    -16.08826184	    -11.54756125	     31.28974733	     45.32188718	      0.00000000	      0.00000000	     16.79032726	    -16.91150716	     -0.50544759	     38.30626378	     45.48446532	      0.00000000	      0.00000000
     41.59800000	     -2.85794845	     -4.54812865	     -3.98985236	      1.04472422	      0.93823158	      0.44355574	     28.04896805	     -3.35297894	     -6.69329908	     28.29145296	     28.29145296	      5.40787756	     -2.51187141	      1.84449693	      8.19703646	     -6.02069905	    -15.12858808	     16.58602599	     16.58602599	     14.55006914	      0.14531254	     -5.51516263	    -10.35110277	      0.60546690	     -1.85320683	    -10.38132416	    -16.02071467	    -11.48800954	     31.30687247	     45.32318149	      0.00000000	      0.00000000	     17.45339920	    -16.73552342	     -0.50014942	     38.57151746	     45.49964823	      0.00000000	      0.00000000
     41.61150000	     -3.05219946	     -4.41082430	     -4.22074421	      1.04318507	      0.93766780	      0.44413940	     27.48665366	     -3.10900171	     -6.65956584	     24.14091115	     24.14091115	      5.05993470	     -0.38821744	      2.49752289	      8.05325736	     -5.86744328	    -15.24356472	     16.46758748	     16.46758748	     14.64189059	     -0.08910576	     -5.66035257	    -10.23477497	      0.41307527	     -1.79536825	    -10.41312677	    -15.93424775	    -11.44814410	     31.34345806	     45.32396569	      0.00000000	      0.00000000	     18.07127307	    -16.55810906	     -0.48987467	     38.89730172	     45.51254434	      0.00000000	      0.00000000
     41.62500000	     -3.01911322	     -4.48156563	     -4.35379873	      1.04200495	      0.93740182	      0.44475116	     26.45291875	     -2.74569806	     -7.17887547	     19.91206606	     19.91206606	      4.77997806	      2.42032863	      3.25409433	      7.58587169	     -5.88165385	    -15.09709699	     16.23648255	     16.23648255	     14.72342567	     -0.47915664	     -5.82652227	    -10.37190465	      0.51051844	     -1.59886753	    -10.41840455	    -16.06284169	    -11.45035966	     31.39075536	     45.33170483	      0.00000000	      0.00000000	     18.68713423	    -16.21140518	     -0.46626046	     39.35354158	     45.52728996	      0.00000000	      0.00000000
     41.63850000	     -3.07790346	     -4.29073354	     -4.55132695	      1.04080791	      0.93680632	      0.44541184	     25.75765910	     -2.68993762	     -7.91946943	     16.34552532	     16.34552532	      4.61468072	      5.75718470	      4.53232780	      7.17065612	     -5.55530576	    -14.80601062	     15.85344249	     15.85344249	     14.53578934	     -1.32512562	     -6.22681787	    -10.39353246	      0.33585379	     -1.39099502	    -10.37912300	    -16.05901340	    -11.52482388	     31.61023403	     45.35281052	      0.00000000	      0.00000000	     19.21640026	    -15.94186493	     -0.45500880	     40.00863884	     45.55487846	      0.00000000	      0.00000000
     41.65200000	     -3.17535764	     -4.20889577	     -4.76329841	      1.03966658	      0.93611090	      0.44633985	     25.17965480	     -2.42748852	     -8.46458246	     13.28954946	     13.28954946	      4.65857513	      8.37260233	      6.92266659	      6.85510423	     -5.37443424	    -14.41279409	     15.60319688	     15.60319688	     14.31406772	     -2.38341360	     -6.90394557	    -10.38567782	      0.28088924	     -1.26810024	    -10.18816964	    -16.01923535	    -11.65617679	     31.85811284	     45.39335110	      0.00000000	      0.00000000	     19.48325103	    -15.79102459	     -0.37481224	     40.79291249	     45.58426507	      0.00000000	      0.00000000
     41.66550000	     -3.27171109	     -4.14123041	     -4.97649541	      1.03859699	      0.93540176	      0.44751164	     24.70516987	     -2.13309405	     -8.96570779	     10.85246544	     10.85246544	      4.69965700	     10.44279090	      9.29551101	      6.57779915	     -5.26789053	    -14.13401749	     15.46024609	     15.46024609	     14.19297598	     -3.23833275	     -7.37854753	    -10.34075794	      0.24561510	     -1.14222904	     -9.87068916	    -15.97664624	    -11.73775367	     32.00203873	     45.43904116	      0.00000000	      0.00000000	     19.72020789	    -15.68430332	     -0.23459728	     41.56035355	     45.61112532	      0.00000000	      0.00000000
     41.67900000	     -3.39065890	     -4.07890906	     -5.18903884	      1.03767743	      0.93462266	      0.44888412	     24.28326633	     -1.79859304	     -9.17163860	      8.92190812	      8.92190812	      4.27986340	     11.58829225	     10.00780933	      6.40518708	     -5.25126542	    -14.10766820	     15.54858332	     15.54858332	     14.37026432	     -3.64452787	     -7.47480953	    -10.23683439	      0.23972467	     -0.99767089	     -9.54839949	    -15.91950019	    -11.71718989	     32.12731402	     45.44217193	      0.00000000	      0.00000000	     20.05989212	    -15.50388213	     -0.17940030	     41.92881807	     45.61688195	      0.00000000	      0.00000000
     41.69250000	     -3.44208511	     -4.03310959	     -5.43473520	      1.03684957	      0.93400337	      0.45045939	     23.94071707	     -1.50470862	     -9.55442441	      7.80236183	      7.80236183	      3.96291619	     12.52566500	     10.55121850	      6.09998846	     -5.24319044	    -14.06737492	     15.54790241	     15.54790241	     14.51888012	     -4.07928670	     -7.51649578	    -10.22619774	      0.22163846	     -0.82797261	     -9.08469314	    -15.90031356	    -11.71088396	     32.31570031	     45.44362936	      0.00000000	      0.00000000	     20.34954014	    -15.32362271	     -0.11053645	     42.33866706	     45.62062923	      0.00000000	      0.00000000
